<svg width="332" height="75" viewBox="0 0 332 75" fill="none" xmlns="http://www.w3.org/2000/svg">
<path d="M6.072 52C5.22133 52 4.54667 51.7653 4.048 51.296C3.57867 50.8267 3.344 50.1667 3.344 49.316V23.664C3.344 22.8133 3.57867 22.1533 4.048 21.684C4.54667 21.2147 5.22133 20.98 6.072 20.98H21.956C22.8067 20.98 23.4667 21.1707 23.936 21.552C24.4053 21.9333 24.64 22.476 24.64 23.18C24.64 23.9133 24.4053 24.4853 23.936 24.896C23.4667 25.2773 22.8067 25.468 21.956 25.468H8.888V34.004H21.076C21.9267 34.004 22.5867 34.1947 23.056 34.576C23.5253 34.9573 23.76 35.5147 23.76 36.248C23.76 36.952 23.5253 37.4947 23.056 37.876C22.5867 38.2573 21.9267 38.448 21.076 38.448H8.888V47.512H21.956C22.8067 47.512 23.4667 47.7173 23.936 48.128C24.4053 48.5093 24.64 49.0667 24.64 49.8C24.64 50.504 24.4053 51.0467 23.936 51.428C23.4667 51.8093 22.8067 52 21.956 52H6.072ZM36.5582 52.352C33.3608 52.352 30.7795 51.7213 28.8142 50.46C27.8755 49.9027 27.4062 49.1107 27.4062 48.084C27.4062 47.4973 27.5675 47.028 27.8902 46.676C28.2128 46.2947 28.6088 46.104 29.0782 46.104C29.5768 46.104 30.2662 46.3387 31.1462 46.808C32.0848 47.248 32.9355 47.5853 33.6982 47.82C34.4902 48.0547 35.4875 48.172 36.6902 48.172C37.9222 48.172 38.8755 47.9667 39.5502 47.556C40.2542 47.1453 40.6062 46.5733 40.6062 45.84C40.6062 45.3413 40.4595 44.9453 40.1662 44.652C39.9022 44.3587 39.4035 44.0947 38.6702 43.86C37.9662 43.596 36.8808 43.3027 35.4142 42.98C32.8035 42.452 30.9262 41.704 29.7822 40.736C28.6675 39.768 28.1102 38.4333 28.1102 36.732C28.1102 35.4413 28.4915 34.2827 29.2542 33.256C30.0168 32.2 31.0582 31.3933 32.3782 30.836C33.7275 30.2493 35.2528 29.956 36.9542 29.956C38.1862 29.956 39.3742 30.1173 40.5182 30.44C41.6622 30.7333 42.6888 31.1733 43.5982 31.76C44.5368 32.3467 45.0062 33.124 45.0062 34.092C45.0062 34.6787 44.8448 35.1773 44.5222 35.588C44.1995 35.9693 43.8035 36.16 43.3342 36.16C43.0115 36.16 42.6888 36.1013 42.3662 35.984C42.0728 35.8373 41.6915 35.632 41.2222 35.368C40.3715 34.928 39.6382 34.6053 39.0222 34.4C38.4062 34.1653 37.6435 34.048 36.7342 34.048C35.6488 34.048 34.7835 34.268 34.1382 34.708C33.5222 35.148 33.2142 35.7493 33.2142 36.512C33.2142 37.2453 33.5368 37.8027 34.1822 38.184C34.8275 38.5653 36.0742 38.9467 37.9222 39.328C39.8875 39.7387 41.4275 40.208 42.5422 40.736C43.6568 41.264 44.4488 41.924 44.9182 42.716C45.4168 43.508 45.6662 44.52 45.6662 45.752C45.6662 47.7467 44.8302 49.3453 43.1582 50.548C41.5155 51.7507 39.3155 52.352 36.5582 52.352ZM73.2469 48.172C74.7136 48.26 75.4469 48.92 75.4469 50.152C75.4469 50.856 75.1536 51.3987 74.5669 51.78C74.0096 52.132 73.2029 52.2787 72.1469 52.22L70.9589 52.132C66.0309 51.78 63.5669 49.14 63.5669 44.212V34.62H61.3669C60.5749 34.62 59.9589 34.444 59.5189 34.092C59.1083 33.74 58.9029 33.2267 58.9029 32.552C58.9029 31.8773 59.1083 31.364 59.5189 31.012C59.9589 30.66 60.5749 30.484 61.3669 30.484H63.5669V26.436C63.5669 25.644 63.8163 25.0133 64.3149 24.544C64.8136 24.0747 65.4883 23.84 66.3389 23.84C67.1603 23.84 67.8203 24.0747 68.3189 24.544C68.8176 25.0133 69.0669 25.644 69.0669 26.436V30.484H72.8069C73.5989 30.484 74.2003 30.66 74.6109 31.012C75.0509 31.364 75.2709 31.8773 75.2709 32.552C75.2709 33.2267 75.0509 33.74 74.6109 34.092C74.2003 34.444 73.5989 34.62 72.8069 34.62H69.0669V44.608C69.0669 46.7787 70.0643 47.9373 72.0589 48.084L73.2469 48.172ZM88.1251 52.352C85.9251 52.352 83.9891 51.8973 82.3171 50.988C80.6745 50.0787 79.3985 48.7733 78.4891 47.072C77.5798 45.3707 77.1251 43.3907 77.1251 41.132C77.1251 38.8733 77.5798 36.908 78.4891 35.236C79.3985 33.5347 80.6745 32.2293 82.3171 31.32C83.9891 30.4107 85.9251 29.956 88.1251 29.956C90.3251 29.956 92.2465 30.4107 93.8891 31.32C95.5611 32.2293 96.8371 33.5347 97.7171 35.236C98.6265 36.908 99.0811 38.8733 99.0811 41.132C99.0811 43.3907 98.6265 45.3707 97.7171 47.072C96.8371 48.7733 95.5611 50.0787 93.8891 50.988C92.2465 51.8973 90.3251 52.352 88.1251 52.352ZM88.0811 48.084C89.8705 48.084 91.2345 47.4973 92.1731 46.324C93.1118 45.1507 93.5811 43.42 93.5811 41.132C93.5811 38.8733 93.1118 37.1573 92.1731 35.984C91.2345 34.7813 89.8851 34.18 88.1251 34.18C86.3651 34.18 85.0011 34.7813 84.0331 35.984C83.0945 37.1573 82.6251 38.8733 82.6251 41.132C82.6251 43.42 83.0945 45.1507 84.0331 46.324C84.9718 47.4973 86.3211 48.084 88.0811 48.084ZM113.17 52.352C111.028 52.352 109.136 51.8973 107.494 50.988C105.88 50.0787 104.634 48.788 103.754 47.116C102.874 45.444 102.434 43.4933 102.434 41.264C102.434 39.0347 102.888 37.0693 103.798 35.368C104.736 33.6373 106.042 32.3027 107.714 31.364C109.386 30.4253 111.307 29.956 113.478 29.956C114.622 29.956 115.766 30.1173 116.91 30.44C118.083 30.7627 119.11 31.2027 119.99 31.76C120.928 32.376 121.398 33.1533 121.398 34.092C121.398 34.7373 121.236 35.2653 120.914 35.676C120.62 36.0573 120.224 36.248 119.726 36.248C119.403 36.248 119.066 36.1747 118.714 36.028C118.362 35.8813 118.01 35.7053 117.658 35.5C117.012 35.1187 116.396 34.8253 115.81 34.62C115.223 34.3853 114.548 34.268 113.786 34.268C111.967 34.268 110.559 34.8693 109.562 36.072C108.594 37.2453 108.11 38.9467 108.11 41.176C108.11 43.376 108.594 45.0773 109.562 46.28C110.559 47.4533 111.967 48.04 113.786 48.04C114.519 48.04 115.164 47.9373 115.722 47.732C116.308 47.4973 116.954 47.1893 117.658 46.808C118.098 46.544 118.479 46.3533 118.802 46.236C119.124 46.0893 119.447 46.016 119.77 46.016C120.239 46.016 120.635 46.2213 120.958 46.632C121.28 47.0427 121.442 47.556 121.442 48.172C121.442 48.6707 121.324 49.1107 121.09 49.492C120.884 49.844 120.532 50.1667 120.034 50.46C119.124 51.0467 118.068 51.516 116.866 51.868C115.663 52.1907 114.431 52.352 113.17 52.352ZM144.246 47.732C144.833 48.2893 145.126 48.92 145.126 49.624C145.126 50.2987 144.877 50.9 144.378 51.428C143.909 51.956 143.351 52.22 142.706 52.22C142.061 52.22 141.459 51.956 140.902 51.428L130.606 42.1V49.624C130.606 50.4747 130.342 51.12 129.814 51.56C129.286 52 128.626 52.22 127.834 52.22C127.042 52.22 126.382 52 125.854 51.56C125.355 51.12 125.106 50.4747 125.106 49.624V23.356C125.106 22.5053 125.355 21.86 125.854 21.42C126.382 20.98 127.042 20.76 127.834 20.76C128.626 20.76 129.286 20.98 129.814 21.42C130.342 21.86 130.606 22.5053 130.606 23.356V39.9L140.022 30.88C140.55 30.352 141.151 30.088 141.826 30.088C142.501 30.088 143.087 30.3373 143.586 30.836C144.085 31.3347 144.334 31.9213 144.334 32.596C144.334 33.2707 144.055 33.8867 143.498 34.444L136.59 40.868L144.246 47.732ZM171.817 48.172C173.284 48.26 174.017 48.92 174.017 50.152C174.017 50.856 173.724 51.3987 173.137 51.78C172.58 52.132 171.773 52.2787 170.717 52.22L169.529 52.132C164.601 51.78 162.137 49.14 162.137 44.212V34.62H159.937C159.145 34.62 158.529 34.444 158.089 34.092C157.679 33.74 157.473 33.2267 157.473 32.552C157.473 31.8773 157.679 31.364 158.089 31.012C158.529 30.66 159.145 30.484 159.937 30.484H162.137V26.436C162.137 25.644 162.387 25.0133 162.885 24.544C163.384 24.0747 164.059 23.84 164.909 23.84C165.731 23.84 166.391 24.0747 166.889 24.544C167.388 25.0133 167.637 25.644 167.637 26.436V30.484H171.377C172.169 30.484 172.771 30.66 173.181 31.012C173.621 31.364 173.841 31.8773 173.841 32.552C173.841 33.2267 173.621 33.74 173.181 34.092C172.771 34.444 172.169 34.62 171.377 34.62H167.637V44.608C167.637 46.7787 168.635 47.9373 170.629 48.084L171.817 48.172ZM186.695 52.352C184.495 52.352 182.559 51.8973 180.887 50.988C179.245 50.0787 177.969 48.7733 177.059 47.072C176.15 45.3707 175.695 43.3907 175.695 41.132C175.695 38.8733 176.15 36.908 177.059 35.236C177.969 33.5347 179.245 32.2293 180.887 31.32C182.559 30.4107 184.495 29.956 186.695 29.956C188.895 29.956 190.817 30.4107 192.459 31.32C194.131 32.2293 195.407 33.5347 196.287 35.236C197.197 36.908 197.651 38.8733 197.651 41.132C197.651 43.3907 197.197 45.3707 196.287 47.072C195.407 48.7733 194.131 50.0787 192.459 50.988C190.817 51.8973 188.895 52.352 186.695 52.352ZM186.651 48.084C188.441 48.084 189.805 47.4973 190.743 46.324C191.682 45.1507 192.151 43.42 192.151 41.132C192.151 38.8733 191.682 37.1573 190.743 35.984C189.805 34.7813 188.455 34.18 186.695 34.18C184.935 34.18 183.571 34.7813 182.603 35.984C181.665 37.1573 181.195 38.8733 181.195 41.132C181.195 43.42 181.665 45.1507 182.603 46.324C183.542 47.4973 184.891 48.084 186.651 48.084ZM211.74 52.352C209.599 52.352 207.707 51.8973 206.064 50.988C204.451 50.0787 203.204 48.788 202.324 47.116C201.444 45.444 201.004 43.4933 201.004 41.264C201.004 39.0347 201.459 37.0693 202.368 35.368C203.307 33.6373 204.612 32.3027 206.284 31.364C207.956 30.4253 209.877 29.956 212.048 29.956C213.192 29.956 214.336 30.1173 215.48 30.44C216.653 30.7627 217.68 31.2027 218.56 31.76C219.499 32.376 219.968 33.1533 219.968 34.092C219.968 34.7373 219.807 35.2653 219.484 35.676C219.191 36.0573 218.795 36.248 218.296 36.248C217.973 36.248 217.636 36.1747 217.284 36.028C216.932 35.8813 216.58 35.7053 216.228 35.5C215.583 35.1187 214.967 34.8253 214.38 34.62C213.793 34.3853 213.119 34.268 212.356 34.268C210.537 34.268 209.129 34.8693 208.132 36.072C207.164 37.2453 206.68 38.9467 206.68 41.176C206.68 43.376 207.164 45.0773 208.132 46.28C209.129 47.4533 210.537 48.04 212.356 48.04C213.089 48.04 213.735 47.9373 214.292 47.732C214.879 47.4973 215.524 47.1893 216.228 46.808C216.668 46.544 217.049 46.3533 217.372 46.236C217.695 46.0893 218.017 46.016 218.34 46.016C218.809 46.016 219.205 46.2213 219.528 46.632C219.851 47.0427 220.012 47.556 220.012 48.172C220.012 48.6707 219.895 49.1107 219.66 49.492C219.455 49.844 219.103 50.1667 218.604 50.46C217.695 51.0467 216.639 51.516 215.436 51.868C214.233 52.1907 213.001 52.352 211.74 52.352ZM242.816 47.732C243.403 48.2893 243.696 48.92 243.696 49.624C243.696 50.2987 243.447 50.9 242.948 51.428C242.479 51.956 241.922 52.22 241.276 52.22C240.631 52.22 240.03 51.956 239.472 51.428L229.176 42.1V49.624C229.176 50.4747 228.912 51.12 228.384 51.56C227.856 52 227.196 52.22 226.404 52.22C225.612 52.22 224.952 52 224.424 51.56C223.926 51.12 223.676 50.4747 223.676 49.624V23.356C223.676 22.5053 223.926 21.86 224.424 21.42C224.952 20.98 225.612 20.76 226.404 20.76C227.196 20.76 227.856 20.98 228.384 21.42C228.912 21.86 229.176 22.5053 229.176 23.356V39.9L238.592 30.88C239.12 30.352 239.722 30.088 240.396 30.088C241.071 30.088 241.658 30.3373 242.156 30.836C242.655 31.3347 242.904 31.9213 242.904 32.596C242.904 33.2707 242.626 33.8867 242.068 34.444L235.16 40.868L242.816 47.732Z" fill="url(#paint0_linear)"/>
<path d="M303.875 13.5164V13.4977L317.909 19.7836L332 14.5008L294.5 0.438278L257 14.5008L294.5 28.5633L308.534 23.2992L294.5 17.5148V17.5008L303.875 13.5164Z" fill="#4CD137"/>
<path d="M257 19.1883V61.3758L292.156 74.5617V32.3742L257 19.1883ZM275.75 61.5305L266.375 58.0148V53.0133L275.75 56.5289V61.5305Z" fill="#4CD137"/>
<path d="M317.938 24.4617V36.2039L308.562 39.7195V27.9773L296.844 32.3742V74.5617L332 61.3758V19.1883L317.938 24.4617Z" fill="#4CD137"/>
<defs>
<linearGradient id="paint0_linear" x1="21" y1="-3.99999" x2="256" y2="90" gradientUnits="userSpaceOnUse">
<stop offset="0.236977" stop-color="#44BD32"/>
<stop offset="0.753485" stop-color="#4CD137"/>
</linearGradient>
</defs>
</svg>
